<svg width="484" height="140" viewBox="0 0 484 140" fill="none" xmlns="http://www.w3.org/2000/svg">
<rect width="484" height="140" rx="36" fill="#1E1E1E"/>
<path fill-rule="evenodd" clip-rule="evenodd" d="M100.878 81.3711C100.439 81.7598 99.9024 81.9542 99.317 81.9056C99.561 82.6344 99.3658 83.4606 98.8293 83.9951C98.2927 84.5296 97.4635 84.7241 96.7318 84.4324C96.683 85.0155 96.2928 85.5501 95.7562 85.7931C95.1708 86.036 94.4879 85.9388 94.0001 85.5501C93.7561 86.0846 93.1707 86.4249 92.5853 86.3763C92.5853 86.7164 92.4877 87.008 92.2927 87.2995C91.6586 88.7088 90.0488 89.389 88.5853 88.8058C88.6341 90.118 87.6098 91.2356 86.244 91.2842C85.6098 91.2842 84.9757 91.0898 84.4879 90.6039C84.1463 91.3815 83.4633 91.8674 82.6342 91.916C81.8048 91.9646 81.0244 91.5273 80.6343 90.7983C80.1463 91.4301 79.3659 91.7215 78.5853 91.5273C77.805 91.3328 77.2196 90.7011 77.0732 89.9721C76.4878 90.2152 75.8537 90.1666 75.3659 89.7779C74.8781 89.389 74.6341 88.8058 74.7317 88.1741L74.0975 88.1257C73.4146 87.9312 73.0244 87.2023 73.1708 86.5219C72.7318 86.9594 72.1952 87.1537 71.5611 87.2023C69.9513 87.3481 68.5854 86.2304 68.439 84.7241C67.6098 85.21 66.5854 85.1128 65.8049 84.5296C65.0244 83.9465 64.6829 82.9747 64.9268 82.0512C63.7561 82.1971 62.6829 81.3225 62.5854 80.1562C62.5366 79.6703 62.6829 79.1357 62.9268 78.7469C61.8537 78.6012 61.0732 77.5806 61.2195 76.5115C61.2683 76.0256 61.561 75.5397 61.9512 75.2482C61.4634 74.8593 61.2195 74.2762 61.3171 73.6444C61.4146 73.0129 61.8537 72.5268 62.439 72.3325C62 71.798 62.0488 70.9718 62.5366 70.4859H62.5854C62.2439 70.2914 61.9512 70.0486 61.7073 69.7083C60.7805 68.445 61.0244 66.6956 62.2439 65.7238C61.4146 65.2376 60.9268 64.3144 61.0732 63.3912C61.1707 62.4194 61.8537 61.6418 62.7805 61.3501C62.2927 60.67 62.2439 59.7951 62.6341 59.0664C63.0244 58.3374 63.8537 57.9001 64.6829 57.9971C64.3902 57.2683 64.5854 56.4421 65.122 55.9076C65.6585 55.3731 66.4878 55.1787 67.2195 55.4703C67.2683 54.8872 67.6585 54.3526 68.2439 54.1097C68.8293 53.8667 69.4634 53.9639 69.9513 54.3526C70.1951 53.7695 70.7805 53.4294 71.3659 53.4779L71.4147 53.6237C71.4147 52.7004 71.9024 51.8257 72.683 51.2912C73.4634 50.7567 74.4391 50.6595 75.3171 50.9996L75.4635 50.1735C75.7073 49.396 76.3902 48.8129 77.1708 48.6185C77.9512 48.4241 78.7805 48.6671 79.4147 49.2016C79.7073 48.4241 80.4391 47.8896 81.317 47.841C82.1464 47.7924 82.9268 48.2298 83.3171 49.0073C83.8049 48.3756 84.5853 48.084 85.3659 48.2784C86.1464 48.4727 86.7318 49.1045 86.878 49.8334C87.4634 49.5904 88.0975 49.6876 88.5853 50.0764C89.0731 50.4651 89.3171 51.0968 89.1707 51.68C89.9025 51.5342 90.6342 52.0201 90.7804 52.749C90.8292 52.9434 90.8292 53.0892 90.7804 53.2836C91.2196 52.8462 91.7562 52.6518 92.3903 52.5546C94.0001 52.4575 95.317 53.5751 95.4634 55.0816C96.2928 54.5957 97.3659 54.6441 98.1463 55.2273C98.9269 55.8104 99.2682 56.831 99.0245 57.7543C100.195 57.6084 101.268 58.4832 101.366 59.6493C101.415 60.1354 101.268 60.67 101.024 61.0586C101.805 61.2045 102.439 61.739 102.634 62.5164C102.829 63.294 102.585 64.0716 101.951 64.5575C102.293 64.8003 102.537 65.1892 102.634 65.5779C102.732 66.4039 102.293 67.1815 101.512 67.5216C101.951 68.0561 101.903 68.8823 101.415 69.3682C102.244 69.8541 102.78 70.7289 102.829 71.6522C102.878 72.624 102.439 73.4988 101.707 74.0819C101.951 74.2276 102.146 74.3734 102.342 74.6165C102.878 75.2482 103.024 76.0742 102.829 76.8518C102.585 77.6292 102 78.2123 101.22 78.4554C101.854 79.4272 101.707 80.6907 100.878 81.3711ZM108.146 48.2298L87.8537 36.5672C84.2439 34.4776 79.7561 34.4776 76.1463 36.5672L55.8537 48.2298C52.2439 50.3193 50 54.1583 50 58.3374V81.6625C50 85.8417 52.2439 89.6807 55.8537 91.7702L76.1463 103.433C79.7561 105.522 84.2439 105.522 87.8537 103.433L108.146 91.7702C111.756 89.6807 114 85.8417 114 81.6625V58.2888C114 54.1583 111.756 50.3193 108.146 48.2298ZM66.3903 66.4045C66.9756 67.1819 67.122 68.2023 66.7805 69.1258C67.9512 69.223 68.8781 70.1462 68.9756 71.3125C70.0487 71.0694 71.1219 71.6526 71.5123 72.6246C72.3902 71.9928 73.6586 72.1385 74.2927 73.0619L74.3903 73.1591L74.6341 72.9161C75.1707 72.4301 76.0001 72.3815 76.6342 72.8188C76.7318 72.5274 76.878 72.2843 77.0732 72.0901C77.6098 71.6526 78.2928 71.6039 78.8293 71.9928C78.9269 71.6526 79.2195 71.4097 79.5609 71.3611C79.3171 70.9724 79.2195 70.5349 79.1707 70.0976V70.1462C78.6829 70.292 78.1952 70.049 78.0488 69.6117C78.0488 69.5631 78.0488 69.5631 78 69.5144C77.561 69.7575 77.0244 69.8061 76.5854 69.5631C76.1465 69.32 75.8537 68.8827 75.8049 68.3968C75.5123 68.494 75.0731 68.5426 74.7317 68.3968C73.9026 68.1053 73.4634 67.2305 73.7074 66.4045C72.9756 66.4531 72.2926 66.0642 71.9024 65.4325C71.5123 64.8009 71.5611 64.0233 71.9512 63.3916C71.1707 63.1971 70.5367 62.517 70.3903 61.7394C70.1951 60.9132 70.4879 60.0872 71.1219 59.6013C70.1951 58.7751 70.0975 57.366 70.8293 56.3941C70.7721 56.3941 70.7317 56.3774 70.6983 56.3636C70.6745 56.3539 70.6544 56.3455 70.6341 56.3455C70.5367 56.7828 70.1951 57.1715 69.8049 57.366C69.4146 57.6088 68.9269 57.6088 68.4878 57.5118C68.4391 58.5322 67.561 59.3582 66.5366 59.4068C66.8293 59.9414 66.8781 60.6217 66.6342 61.2049C66.3903 61.788 65.9025 62.2253 65.3171 62.4198C66.0976 63.3916 66.0488 64.7523 65.1708 65.6269C65.6098 65.6269 66.0488 65.9186 66.3903 66.4045ZM80.7805 78.1157C79.6585 78.2127 78.8779 79.2334 79.0243 80.3024C77.9512 80.108 76.878 80.7883 76.5364 81.7602C75.4633 81.2742 74.2439 81.6143 73.561 82.5864L73.5122 82.5377C72.5366 81.3229 70.7317 81.177 69.5121 82.1489C69.2195 80.9826 67.9999 80.2052 66.7804 80.3994C66.878 79.8165 66.7316 79.1847 66.3414 78.6986C65.9512 78.2127 65.4146 77.9212 64.7804 77.8726C65.317 76.998 65.0243 75.8317 64.1463 75.2486C64.5365 74.8597 64.7804 74.2766 64.6341 73.6934C64.5853 73.3534 64.3902 73.0133 64.1463 72.7702C64.2438 72.7702 64.3414 72.7216 64.439 72.673C64.9755 73.6934 66.1951 74.1796 67.317 73.8393C67.4146 74.6655 67.9999 75.2972 68.7316 75.5887C69.4633 75.8804 70.2927 75.7345 70.9267 75.2C71.2195 75.7345 71.7073 76.1718 72.3414 76.2691C72.9756 76.3663 73.6098 76.1718 74.0487 75.7831C74.1951 75.6859 74.4389 75.4429 74.4877 75.2486C74.8779 75.7345 75.5121 75.8804 76.0975 75.7345C76.6828 75.5887 77.1218 75.1028 77.2682 74.5196C77.756 74.7627 78.2926 74.8111 78.7803 74.5196C79.2683 74.228 79.5121 73.7421 79.5121 73.2075C79.7561 73.3047 80.0975 73.2075 80.2927 73.0133C80.4877 72.8674 80.5853 72.6244 80.6341 72.4301C81.073 72.673 81.5608 72.8188 82.0488 72.8188C81.9512 72.9647 81.9512 73.1589 81.9512 73.3047C82 73.4992 82.0488 73.6934 82.195 73.7907C81.6096 74.0823 81.317 74.7141 81.4146 75.3458C81.4146 75.5887 81.6096 75.8804 81.8048 76.0746C81.1218 76.3177 80.7317 77.0951 80.878 77.824L80.9268 78.1157H80.7805ZM84.9755 59.6983C85.0243 60.2328 84.8781 60.816 84.4877 61.2049C84.0975 61.6422 83.6097 61.885 83.0244 61.885L83.0732 62.1767C83.2195 62.9057 82.878 63.6831 82.195 63.9261H82.1464C82.7316 64.5093 82.7316 65.4325 82.1464 65.967C82.0488 66.0642 81.9512 66.1614 81.8048 66.2101C81.9512 66.4043 82.0488 66.5988 82 66.8418C82.4878 66.8418 83.0244 66.9874 83.4633 67.2791C83.6585 66.8902 84.0487 66.696 84.4877 66.7932C84.4877 66.2587 84.7317 65.7726 85.2195 65.4811C85.7072 65.1894 86.2438 65.238 86.7316 65.4811C86.7316 65.141 86.9268 64.8493 87.2194 64.6065C87.9511 64.0233 88.9267 64.0718 89.4635 64.7521C90 63.7803 91.1706 63.4402 92.1464 63.9261C92.4877 64.1204 92.7805 64.412 92.9755 64.7521C93.6097 64.2176 94.4391 64.0718 95.1706 64.3634C95.9024 64.6549 96.4878 65.2866 96.5854 66.1128C97.7073 65.7241 98.9269 66.2101 99.4634 67.2791L99.7072 67.1333C99.0245 66.5015 98.9757 65.4325 99.6096 64.7521C99.6284 64.7336 99.6399 64.715 99.6496 64.6992C99.6657 64.6736 99.6772 64.6549 99.7072 64.6549C98.8293 64.0718 98.5365 62.9057 99.0731 62.0309C98.4391 62.0309 97.8537 61.7394 97.4633 61.2049C97.0731 60.7188 96.9267 60.0872 97.0243 59.4555C95.8048 59.6497 94.5853 58.8723 94.2927 57.706C93.0731 58.6779 91.2682 58.4834 90.2926 57.2687C89.6097 58.2406 88.3415 58.5806 87.2682 58.0461C87.0732 59.1638 86.0488 59.8441 84.9755 59.6983ZM74.3415 62.5168C75.0245 61.6422 74.9269 60.3787 74.1463 59.6013C75.1221 58.8723 75.4147 57.6088 74.9269 56.5884C76.4878 56.2969 77.5122 54.839 77.2684 53.284C78.4879 53.6241 79.7073 52.8952 80.0977 51.729C80.5855 52.1177 81.2196 52.2635 81.805 52.1663C82.3904 52.0691 82.927 51.729 83.2683 51.1944C83.8537 52.0691 84.9757 52.3607 85.9024 51.8262C86.0488 52.4093 86.3904 52.9438 87.0244 53.1382C87.366 53.2354 87.7561 53.1868 88.0975 53.041L88.1463 53.5755C87.1708 53.7213 86.3416 54.4503 86.1464 55.4221C85.3659 55.1306 84.5367 55.2277 83.9025 55.7624C83.2683 56.2969 82.9758 57.1229 83.122 57.9005C82.3904 57.9005 81.7074 58.2406 81.3172 58.8723C80.9756 59.5041 80.9268 60.2815 81.3172 60.9132C80.7319 61.059 80.2439 61.4963 80.0977 62.0795C79.9513 62.6626 80.1465 63.2944 80.5855 63.6831C80.1465 63.9261 79.8537 64.412 79.8537 64.8979C79.8537 65.4325 80.0977 65.87 80.5367 66.1614C80.3903 66.4045 80.2439 66.696 80.2927 66.9876L80.4391 67.3763C80.0489 67.6678 79.7073 68.0567 79.4635 68.494C79.2195 68.3482 78.9269 68.2509 78.6341 68.3482C78.6829 67.8623 78.488 67.3763 78.0976 67.0847C77.7074 66.7932 77.1708 66.696 76.7318 66.8418C76.8294 66.1614 76.3414 65.4811 75.6099 65.2868L75.3171 65.1896C75.5611 64.7037 75.6099 64.1692 75.4147 63.6345C75.2195 63.1485 74.8293 62.7112 74.3415 62.5168ZM97.3659 78.9417C97.6097 78.3586 98.0975 77.9212 98.6829 77.7268C97.9025 76.755 97.9513 75.3942 98.8293 74.5196C98.2927 74.3738 97.8537 74.0337 97.5609 73.5964H97.5123C96.9269 72.8188 96.7805 71.7984 97.1219 70.8752C95.9512 70.7779 95.0244 69.8545 94.9268 68.6883C93.9025 68.9313 92.8293 68.3482 92.4391 67.3763C92 67.7164 91.4146 67.8623 90.878 67.765C90.3414 67.6678 89.8537 67.3277 89.5611 66.8418L89.3171 67.0847C88.7805 67.5706 87.9513 67.6192 87.366 67.2305C87.2684 67.5222 87.0732 67.765 86.878 67.9595C86.3902 68.3968 85.6586 68.4454 85.1221 68.0567C85.0733 68.2996 84.8781 68.494 84.6341 68.6398C84.8293 69.0285 84.9757 69.5144 84.9757 70.0004H85.3659C85.7072 70.0976 85.9024 70.3404 85.9512 70.6321C86.3902 70.3404 86.9268 70.3404 87.4146 70.5835C87.8537 70.8266 88.1951 71.2639 88.1951 71.7984C88.5365 71.6526 88.9269 71.6526 89.2683 71.7984C90.0976 72.0899 90.5366 72.9647 90.2926 73.7907C91.0732 73.6936 91.8538 74.0823 92.2439 74.7627C92.6341 75.4429 92.5853 76.2691 92.1464 76.9008C92.8781 77.1437 93.4147 77.7754 93.5611 78.553C93.7073 79.3304 93.4635 80.108 92.8781 80.6425C93.8049 81.4687 93.9025 82.8778 93.1707 83.8497L93.4147 83.9469C93.5123 83.5096 93.8049 83.1209 94.2439 82.9264C94.6342 82.6834 95.122 82.635 95.561 82.7806C95.6098 81.7115 96.4878 80.8856 97.5123 80.8856C97.1707 80.2052 97.1707 79.5248 97.3659 78.9417ZM89.6587 77.4839C88.9757 78.3586 89.0733 79.6221 89.8537 80.3996C88.9269 81.0798 88.5853 82.3433 89.0245 83.3637C87.4634 83.6554 86.439 85.1132 86.683 86.6681C85.5122 86.3767 84.1951 87.0084 83.8537 88.2233C83.3659 87.8344 82.7806 87.6402 82.1464 87.7374C81.561 87.8344 81.0244 88.1747 80.6831 88.7092C80.0977 87.8344 78.9757 87.5429 78.0488 88.0775C77.9512 87.5915 77.6586 87.2027 77.2684 86.9598C76.878 86.7167 76.3414 86.6681 75.9025 86.814V86.8626L75.8537 86.328C76.8292 86.1822 77.6586 85.4534 77.8538 84.4814C78.244 84.6272 78.6341 84.6272 79.0243 84.5786C80.2439 84.3844 81.0244 83.2667 80.8293 82.0518C81.4146 82.0518 82.0488 81.8088 82.439 81.3715C82.8782 80.8855 83.0244 80.2538 82.9268 79.6707C82.9268 79.4399 82.8659 79.3004 82.7919 79.1321C82.7724 79.0875 82.7521 79.0411 82.7318 78.9903C83.3171 78.8445 83.7561 78.4072 83.9025 77.824C84.0487 77.2409 83.8537 76.6091 83.4147 76.2204C83.6097 76.1232 83.7561 75.929 83.9025 75.7345C84.3415 75.0542 84.0975 74.1796 83.4147 73.7422L83.5121 73.645C83.8049 73.2561 83.8049 72.7216 83.4147 72.3815C83.8537 72.1385 84.2439 71.7984 84.4879 71.3611C84.6829 71.5553 84.9757 71.6526 85.2683 71.6039C85.2683 72.0901 85.4634 72.5274 85.8536 72.8188C86.244 73.1105 86.7806 73.2077 87.2196 73.0619V73.1105C87.1708 73.7907 87.6098 74.471 88.3415 74.6655L88.6341 74.7627C88.3903 75.2972 88.3415 75.8804 88.5367 76.3663C88.7317 76.8522 89.1219 77.2895 89.6587 77.4839Z" fill="#F05656"/>
<path d="M162.91 81.23C160.255 78.17 158.95 74.615 158.95 70.61C158.95 65.84 160.57 61.745 163.765 58.415C167.365 54.725 172.135 52.835 178.165 52.835C183.385 52.835 187.48 54.14 190.495 56.795C193.285 59.27 194.68 62.51 194.68 66.47C194.68 69.845 193.69 72.68 191.665 75.02C189.685 77.405 187.435 78.575 184.96 78.575C183.52 78.575 182.44 78.26 181.765 77.54C181.09 76.865 180.73 76.01 180.73 75.02C180.73 74.885 180.73 74.705 180.775 74.525C180.775 74.345 180.82 74.165 180.865 73.985C180.1 75.695 179.11 76.865 177.94 77.54C176.725 78.26 175.51 78.575 174.25 78.575C172.45 78.575 171.01 77.945 169.885 76.64C168.76 75.335 168.175 73.67 168.175 71.6C168.175 68.675 169.165 66.11 171.055 63.905C172.99 61.655 175.015 60.575 177.22 60.575C178.705 60.575 179.965 60.98 180.955 61.835C181.9 62.69 182.395 63.77 182.485 64.985L183.565 61.295H186.805L183.88 70.925C183.655 71.645 183.52 72.23 183.385 72.725C183.295 73.175 183.25 73.58 183.25 73.895C183.25 74.57 183.43 75.065 183.88 75.335C184.24 75.65 184.735 75.785 185.23 75.785C186.895 75.785 188.38 74.93 189.73 73.175C191.035 71.465 191.71 69.17 191.71 66.335C191.71 62.96 190.54 60.305 188.155 58.325C185.77 56.39 182.575 55.445 178.57 55.445C172.99 55.445 168.76 57.065 165.79 60.305C163.27 63.095 162.01 66.56 162.01 70.745C162.01 74.435 163.225 77.495 165.61 79.97C168.445 82.94 172.45 84.38 177.625 84.38C180.1 84.38 182.35 84.02 184.42 83.21C186.535 82.445 188.47 81.41 190.18 80.15L191.62 82.13C190.315 83.255 188.335 84.38 185.725 85.415C183.115 86.45 180.235 86.945 177.085 86.945C170.92 86.945 166.24 85.055 162.91 81.23ZM180.55 63.905C179.92 63.185 179.11 62.825 178.03 62.825C176.365 62.825 174.88 63.815 173.665 65.795C172.45 67.775 171.82 69.71 171.82 71.69C171.82 73.085 172.135 74.21 172.765 74.93C173.44 75.695 174.205 76.1 175.15 76.1C177.13 76.1 178.66 74.93 179.785 72.635C180.91 70.295 181.45 68.225 181.45 66.38C181.45 65.48 181.135 64.625 180.55 63.905ZM215.184 71.735C216.084 71.645 216.669 71.24 216.984 70.61C217.164 70.25 217.254 69.755 217.254 69.08C217.254 67.73 216.759 66.74 215.814 66.155C214.869 65.525 213.474 65.255 211.719 65.255C209.649 65.255 208.164 65.795 207.309 66.92C206.814 67.505 206.499 68.45 206.364 69.665H202.674C202.719 66.74 203.664 64.715 205.509 63.59C207.309 62.465 209.379 61.88 211.809 61.88C214.554 61.88 216.804 62.42 218.514 63.5C220.269 64.535 221.124 66.2 221.124 68.405V81.95C221.124 82.355 221.214 82.715 221.349 82.94C221.529 83.21 221.889 83.3 222.429 83.3C222.609 83.3 222.789 83.3 223.014 83.255C223.239 83.255 223.464 83.21 223.734 83.21V86.09C223.104 86.27 222.654 86.405 222.294 86.45C221.979 86.495 221.529 86.495 220.989 86.495C219.639 86.495 218.649 86 218.019 85.055C217.704 84.56 217.479 83.84 217.344 82.895C216.534 83.93 215.409 84.875 213.879 85.64C212.349 86.405 210.729 86.81 208.884 86.81C206.724 86.81 204.924 86.135 203.529 84.785C202.179 83.48 201.459 81.815 201.459 79.835C201.459 77.63 202.134 75.965 203.484 74.75C204.879 73.535 206.634 72.815 208.884 72.545L215.184 71.735ZM206.859 82.445C207.669 83.12 208.659 83.435 209.829 83.435C211.179 83.435 212.574 83.12 213.834 82.445C216.039 81.365 217.164 79.655 217.164 77.225V74.03C216.669 74.345 216.039 74.615 215.274 74.795C214.509 74.975 213.744 75.155 213.024 75.245L210.639 75.56C209.199 75.74 208.119 76.01 207.399 76.46C206.229 77.135 205.599 78.215 205.599 79.745C205.599 80.87 206.004 81.77 206.859 82.445ZM231.414 66.515C231.729 65.75 232.494 64.76 233.709 63.635C234.924 62.51 236.274 61.925 237.849 61.925C237.894 61.925 238.029 61.925 238.209 61.97L239.109 62.06V66.245C238.884 66.2 238.704 66.155 238.479 66.155C238.299 66.11 238.074 66.11 237.804 66.11C235.824 66.11 234.294 66.74 233.214 68.045C232.179 69.305 231.639 70.79 231.639 72.455V86H227.679V62.465H231.414V66.515ZM241.809 66.02V62.465H260.079V65.705L246.219 82.445H260.484V86H240.774V82.895L254.724 66.02H241.809ZM269.079 58.19H265.029V53.735H269.079V58.19ZM269.079 86H265.029V62.555H269.079V86ZM278.92 65.795C279.865 64.625 280.72 63.815 281.485 63.275C282.79 62.375 284.275 61.925 285.94 61.925C287.785 61.925 289.315 62.42 290.44 63.32C291.07 63.86 291.7 64.625 292.195 65.66C293.095 64.4 294.13 63.455 295.3 62.825C296.515 62.24 297.82 61.925 299.305 61.925C302.455 61.925 304.615 63.095 305.785 65.39C306.37 66.605 306.685 68.225 306.685 70.34V86H302.59V69.665C302.59 68.09 302.185 67.01 301.42 66.425C300.61 65.84 299.665 65.525 298.54 65.525C296.965 65.525 295.66 66.065 294.535 67.1C293.41 68.135 292.825 69.89 292.825 72.32V86H288.82V70.655C288.82 69.035 288.64 67.865 288.235 67.145C287.65 66.065 286.525 65.48 284.905 65.48C283.375 65.48 282.025 66.065 280.81 67.235C279.595 68.405 278.965 70.475 278.965 73.535V86H275.005V62.465H278.92V65.795ZM325.135 71.735C326.035 71.645 326.62 71.24 326.935 70.61C327.115 70.25 327.205 69.755 327.205 69.08C327.205 67.73 326.71 66.74 325.765 66.155C324.82 65.525 323.425 65.255 321.67 65.255C319.6 65.255 318.115 65.795 317.26 66.92C316.765 67.505 316.45 68.45 316.315 69.665H312.625C312.67 66.74 313.615 64.715 315.46 63.59C317.26 62.465 319.33 61.88 321.76 61.88C324.505 61.88 326.755 62.42 328.465 63.5C330.22 64.535 331.075 66.2 331.075 68.405V81.95C331.075 82.355 331.165 82.715 331.3 82.94C331.48 83.21 331.84 83.3 332.38 83.3C332.56 83.3 332.74 83.3 332.965 83.255C333.19 83.255 333.415 83.21 333.685 83.21V86.09C333.055 86.27 332.605 86.405 332.245 86.45C331.93 86.495 331.48 86.495 330.94 86.495C329.59 86.495 328.6 86 327.97 85.055C327.655 84.56 327.43 83.84 327.295 82.895C326.485 83.93 325.36 84.875 323.83 85.64C322.3 86.405 320.68 86.81 318.835 86.81C316.675 86.81 314.875 86.135 313.48 84.785C312.13 83.48 311.41 81.815 311.41 79.835C311.41 77.63 312.085 75.965 313.435 74.75C314.83 73.535 316.585 72.815 318.835 72.545L325.135 71.735ZM316.81 82.445C317.62 83.12 318.61 83.435 319.78 83.435C321.13 83.435 322.525 83.12 323.785 82.445C325.99 81.365 327.115 79.655 327.115 77.225V74.03C326.62 74.345 325.99 74.615 325.225 74.795C324.46 74.975 323.695 75.155 322.975 75.245L320.59 75.56C319.15 75.74 318.07 76.01 317.35 76.46C316.18 77.135 315.55 78.215 315.55 79.745C315.55 80.87 315.955 81.77 316.81 82.445ZM341.275 65.795C342.4 64.445 343.57 63.455 344.83 62.825C346.045 62.24 347.44 61.925 348.97 61.925C352.3 61.925 354.55 63.095 355.72 65.435C356.35 66.695 356.71 68.54 356.71 70.925V86H352.66V71.15C352.66 69.755 352.435 68.585 352.03 67.685C351.355 66.245 350.05 65.48 348.205 65.48C347.26 65.48 346.495 65.57 345.91 65.795C344.83 66.11 343.885 66.74 343.03 67.73C342.4 68.495 341.995 69.305 341.77 70.115C341.59 70.97 341.455 72.14 341.455 73.67V86H337.495V62.465H341.275V65.795ZM384.64 89.42V91.625H359.62V89.42H384.64ZM404.695 64.805C406.81 66.83 407.845 69.8 407.845 73.76C407.845 77.54 406.945 80.645 405.1 83.165C403.255 85.64 400.375 86.855 396.505 86.855C393.265 86.855 390.7 85.775 388.765 83.57C386.875 81.365 385.93 78.44 385.93 74.75C385.93 70.79 386.92 67.64 388.945 65.3C390.925 62.96 393.625 61.79 397 61.79C400.06 61.79 402.625 62.78 404.695 64.805ZM402.265 80.465C403.255 78.485 403.705 76.28 403.705 73.85C403.705 71.645 403.39 69.89 402.67 68.495C401.545 66.335 399.61 65.255 396.91 65.255C394.48 65.255 392.725 66.155 391.645 68C390.52 69.845 389.98 72.05 389.98 74.705C389.98 77.18 390.52 79.295 391.645 80.96C392.725 82.625 394.48 83.435 396.865 83.435C399.475 83.435 401.275 82.445 402.265 80.465ZM414.355 55.265C415.3 53.96 417.1 53.24 419.71 53.24C419.935 53.24 420.205 53.24 420.475 53.285L421.375 53.33V56.93C420.97 56.93 420.7 56.93 420.52 56.885H419.98C418.765 56.885 418.045 57.2 417.82 57.83C417.595 58.46 417.46 60.035 417.46 62.555H421.375V65.705H417.415V86H413.5V65.705H410.26V62.555H413.5V58.865C413.59 57.245 413.86 56.03 414.355 55.265ZM425.253 55.265C426.198 53.96 427.998 53.24 430.608 53.24C430.833 53.24 431.103 53.24 431.373 53.285L432.273 53.33V56.93C431.868 56.93 431.598 56.93 431.418 56.885H430.878C429.663 56.885 428.943 57.2 428.718 57.83C428.493 58.46 428.358 60.035 428.358 62.555H432.273V65.705H428.313V86H424.398V65.705H421.158V62.555H424.398V58.865C424.488 57.245 424.758 56.03 425.253 55.265Z" fill="white"/>
<rect x="1.5" y="1.5" width="481" height="137" rx="34.5" stroke="#F05656" stroke-opacity="0.4" stroke-width="3"/>
</svg>
