<svg width="336" height="114" viewBox="0 0 336 114" fill="none" xmlns="http://www.w3.org/2000/svg">
<rect x="1" y="1" width="334" height="112" rx="21" fill="#2F2F2F" stroke="url(#paint0_linear_1_24)" stroke-width="2"/>
<path d="M98.4207 36.3499C98.0124 35.9508 97.7837 35.4103 97.786 34.8469V27.9386C97.786 26.869 96.8993 26.0023 95.805 26.0023H89.3627C88.2683 26.0023 87.3817 26.869 87.3817 27.9386V34.2334C87.3817 35.3031 88.2683 36.1697 89.3627 36.1697H96.4257C97.002 36.1697 97.555 36.3932 97.9633 36.7901C98.3717 37.1892 98.6004 37.7298 98.598 38.2931V78.1077C98.598 79.1773 99.4847 80.044 100.579 80.044H107.019C108.113 80.044 109 79.1773 109 78.1077V38.918C109 37.8483 108.113 36.9817 107.019 36.9817H99.9584C99.3797 36.9794 98.8267 36.7513 98.4207 36.3499Z" fill="#44EB99"/>
<path d="M50.0367 58.7261C50.445 58.3293 50.9957 58.1058 51.572 58.1081H69.051C70.1407 58.1081 71.025 57.2437 71.025 56.1786V49.2566C71.025 48.6978 71.2537 48.1618 71.6573 47.7672C72.0657 47.3704 72.6163 47.1492 73.1927 47.1492H80.2673C81.357 47.1492 82.2413 46.2848 82.2413 45.2197V38.8998C82.2413 37.8347 81.357 36.9703 80.2673 36.9703H73.2067C72.0073 36.968 71.0343 36.0192 71.032 34.8447V27.9295C71.032 26.8644 70.1477 26 69.058 26H41.0067C39.8983 26 39 26.8781 39 27.9614V34.2106C39 35.294 39.8983 36.172 41.0067 36.172H69.6717C70.8757 36.172 71.851 37.1254 71.851 38.3022V45.8263C71.851 46.3874 71.6223 46.9279 71.2163 47.3248C70.8103 47.7216 70.2573 47.9429 69.6833 47.9429H52.1973C51.1077 47.9429 50.2233 48.8073 50.2233 49.8724V56.7944C50.2233 57.3554 49.997 57.8937 49.591 58.2905C49.185 58.6874 48.6343 58.9086 48.0603 58.9086H40.974C39.8843 58.9086 39 59.773 39 60.8381V67.1489C39 68.214 39.8843 69.0783 40.974 69.0783H48.0627C48.6367 69.0783 49.1873 69.2996 49.5933 69.6964C49.9993 70.0933 50.2257 70.6315 50.2257 71.1926V78.1191C50.2257 79.1842 51.11 80.0486 52.1997 80.0486H80.251C81.3593 80.0486 82.2577 79.1706 82.2577 78.0872V71.8426C82.2577 70.7592 81.3593 69.8812 80.251 69.8812H51.579C51.0027 69.8812 50.452 69.6599 50.0437 69.2631C49.6377 68.8685 49.4113 68.3326 49.4113 67.7738V60.2337C49.4067 59.6658 49.6307 59.1253 50.0367 58.7261Z" fill="#44EB99"/>
<path d="M105.722 44.5719C105.675 44.6176 105.612 44.6426 105.544 44.6449H104.56C104.494 44.6426 104.431 44.6176 104.382 44.5719C104.336 44.5263 104.31 44.4647 104.308 44.3986V39.6912C104.308 39.5498 104.189 39.4335 104.044 39.4335H103.253C103.108 39.4335 102.989 39.5498 102.989 39.6912V44.3986C102.987 44.4625 102.961 44.524 102.915 44.5719C102.868 44.6176 102.805 44.6426 102.737 44.6449H101.753C101.687 44.6426 101.624 44.6176 101.575 44.5719C101.529 44.524 101.503 44.4625 101.501 44.3963V39.6912C101.501 39.5498 101.382 39.4335 101.237 39.4335H100.446C100.301 39.4335 100.182 39.5498 100.182 39.6912V44.3119C100.182 44.4533 100.301 44.5697 100.446 44.5697H101.293C101.358 44.5719 101.421 44.597 101.47 44.6426C101.517 44.6905 101.543 44.7521 101.545 44.8183V45.6918C101.545 45.8332 101.664 45.9495 101.809 45.9495H102.6C102.744 45.9495 102.863 45.8332 102.863 45.6918V44.8046C102.863 44.7384 102.891 44.6769 102.938 44.629C102.989 44.5742 103.064 44.5446 103.141 44.5469H104.126C104.193 44.5469 104.256 44.5742 104.305 44.6198C104.352 44.6654 104.378 44.727 104.38 44.7932V45.6667C104.38 45.8081 104.499 45.9244 104.644 45.9244H105.435C105.579 45.9244 105.698 45.8081 105.698 45.6667V44.8046C105.698 44.7384 105.726 44.6769 105.773 44.629C105.82 44.5833 105.883 44.5583 105.95 44.556H106.844C106.989 44.556 107.108 44.4397 107.108 44.2983V39.6912C107.108 39.5498 106.989 39.4335 106.844 39.4335H106.053C105.908 39.4335 105.789 39.5498 105.789 39.6912V44.3986C105.789 44.4625 105.766 44.524 105.722 44.5719Z" fill="#161D27"/>
<path d="M104.282 56.7555V55.866C104.282 55.736 104.175 55.6311 104.042 55.6311H103.216C103.083 55.6311 102.975 55.736 102.975 55.866V56.7555C102.975 56.8194 102.95 56.8787 102.903 56.922L102.884 56.9403C102.84 56.9859 102.777 57.011 102.714 57.011H101.804C101.671 57.011 101.564 57.1159 101.564 57.2459V60.5985C101.564 60.7285 101.671 60.8335 101.804 60.8335H102.714C102.779 60.8335 102.84 60.8585 102.884 60.9042L102.903 60.9224C102.95 60.9657 102.975 61.0273 102.975 61.0889V61.9784C102.975 62.1084 103.083 62.2133 103.216 62.2133H104.042C104.175 62.2133 104.282 62.1084 104.282 61.9784V61.0889C104.282 61.025 104.308 60.9657 104.354 60.9224L104.373 60.9042C104.417 60.8585 104.48 60.8335 104.543 60.8335H105.453C105.586 60.8335 105.694 60.7285 105.694 60.5985V57.2459C105.694 57.1159 105.586 57.011 105.453 57.011H104.543C104.478 57.011 104.417 56.9859 104.373 56.9403L104.354 56.922C104.305 56.8787 104.28 56.8171 104.282 56.7555ZM104.312 60.854L104.294 60.8722C104.249 60.9178 104.186 60.9429 104.123 60.9429H103.129C103.064 60.9429 103.003 60.9178 102.959 60.8722L102.94 60.854C102.894 60.8106 102.868 60.7491 102.868 60.6875V57.1638C102.868 57.0999 102.894 57.0406 102.94 56.9973L102.959 56.979C103.003 56.9334 103.066 56.9083 103.129 56.9083H104.123C104.189 56.9083 104.249 56.9334 104.294 56.979L104.312 56.9973C104.359 57.0406 104.385 57.1022 104.385 57.1638V60.6875C104.385 60.7491 104.359 60.8106 104.312 60.854Z" fill="#161D27"/>
<path d="M104.266 50.0047L104.242 50.0275C104.198 50.0708 104.137 50.0936 104.077 50.0936H103.146C103.015 50.0936 102.91 49.991 102.91 49.8632V47.765C102.91 47.6373 102.805 47.5346 102.674 47.5346H101.832C101.701 47.5346 101.596 47.6373 101.596 47.765V53.7975C101.596 53.9252 101.701 54.0279 101.832 54.0279H102.674C102.805 54.0279 102.91 53.9252 102.91 53.7975V51.5989C102.91 51.4712 103.015 51.3685 103.146 51.3685H104.067C104.13 51.3685 104.189 51.3936 104.233 51.4347L104.256 51.4575C104.301 51.5008 104.324 51.5601 104.324 51.6194V53.7975C104.324 53.9252 104.429 54.0279 104.56 54.0279H105.402C105.533 54.0279 105.638 53.9252 105.638 53.7975V51.6992C105.638 51.5715 105.533 51.4689 105.402 51.4689H104.48C104.417 51.4689 104.359 51.4438 104.315 51.4027L104.291 51.3799C104.247 51.3366 104.224 51.2773 104.224 51.218V50.2418C104.224 50.1803 104.249 50.1233 104.291 50.0799L104.315 50.0571C104.359 50.0138 104.42 49.991 104.48 49.991H105.402C105.533 49.991 105.638 49.8883 105.638 49.7606V47.7627C105.638 47.635 105.533 47.5323 105.402 47.5323H104.56C104.429 47.5323 104.324 47.635 104.324 47.7627V49.8404C104.326 49.902 104.305 49.959 104.266 50.0047Z" fill="#161D27"/>
<path d="M104.282 64.9411V64.0721C104.282 63.9307 104.163 63.8144 104.018 63.8144H103.227C103.083 63.8144 102.964 63.9307 102.964 64.0721V64.9411C102.964 65.0072 102.936 65.0688 102.889 65.1167C102.84 65.1623 102.777 65.1874 102.709 65.1897H101.825C101.68 65.1897 101.561 65.306 101.561 65.4474V70.1616C101.561 70.303 101.68 70.4194 101.825 70.4194H102.616C102.761 70.4194 102.88 70.303 102.88 70.1616V65.3607C102.88 65.2946 102.908 65.233 102.954 65.1851C103.003 65.1395 103.066 65.1144 103.134 65.1121H104.116C104.184 65.1121 104.247 65.1395 104.296 65.1851C104.343 65.233 104.368 65.2946 104.371 65.3607V70.1639C104.371 70.3053 104.49 70.4216 104.634 70.4216H105.425C105.57 70.4216 105.689 70.3053 105.689 70.1639V65.4497C105.689 65.3083 105.57 65.192 105.425 65.192H104.534C104.466 65.192 104.403 65.1646 104.354 65.119C104.305 65.0711 104.28 65.0072 104.282 64.9411Z" fill="#161D27"/>
<path d="M104.368 73.3205L104.354 73.3068C104.308 73.2612 104.282 73.1996 104.282 73.1358V72.2531C104.282 72.1208 104.172 72.0136 104.037 72.0136H103.223C103.087 72.0136 102.978 72.1208 102.978 72.2531V73.1358C102.978 73.1996 102.952 73.2612 102.905 73.3068L102.891 73.3205C102.845 73.3661 102.782 73.3912 102.716 73.3912H101.811C101.676 73.3912 101.566 73.4984 101.566 73.6307V78.3609C101.566 78.4932 101.676 78.6004 101.811 78.6004H102.614C102.749 78.6004 102.859 78.4932 102.859 78.3609V75.9456V74.714L102.891 74.7459C102.938 74.7916 102.964 74.8531 102.964 74.917V75.7996C102.964 75.9319 103.073 76.0391 103.209 76.0391H104.023C104.158 76.0391 104.268 75.9319 104.268 75.7996V74.9193C104.268 74.8554 104.294 74.7938 104.34 74.7482L104.373 74.7163V78.3495C104.373 78.4818 104.483 78.589 104.618 78.589H105.432C105.568 78.589 105.677 78.4818 105.677 78.3495V73.633C105.677 73.5007 105.568 73.3935 105.432 73.3935H104.541C104.476 73.3935 104.413 73.3661 104.368 73.3205ZM104.312 74.6866C104.266 74.7323 104.203 74.7574 104.137 74.7574H103.143C103.078 74.7574 103.015 74.7323 102.968 74.6866L102.952 74.6707C102.905 74.6251 102.88 74.5635 102.88 74.4996V73.5349C102.88 73.471 102.905 73.4094 102.952 73.3638L102.968 73.3479C103.015 73.3023 103.078 73.2772 103.143 73.2772H104.133C104.198 73.2772 104.261 73.3023 104.308 73.3479L104.324 73.3638C104.371 73.4094 104.396 73.471 104.396 73.5349V74.5042C104.394 74.5749 104.366 74.641 104.312 74.6866Z" fill="#161D27"/>
<path d="M100.969 88.771L102.404 87.7378H97.5993V93.946H102.404V92.9128H98.9713V91.3231H101.897V90.29H98.9713V88.771H100.969Z" fill="white"/>
<path d="M93.9734 90.1577H92.305V88.771H94.9674L96.4024 87.7378H90.933V93.9483H93.796C95.4014 93.9483 96.323 93.2367 96.323 91.9982C96.323 90.81 95.49 90.1577 93.9734 90.1577ZM93.7354 92.9128H92.305V91.1908H93.7354C94.6057 91.1908 95.0117 91.4782 95.0117 92.0507C95.0117 92.6368 94.5824 92.9128 93.7354 92.9128Z" fill="white"/>
<path d="M106.293 87.7378H103.68V93.9483H105.05V92.1898H106.293C107.962 92.1898 109 91.3323 109 89.9615C109 88.5885 107.964 87.7378 106.293 87.7378ZM106.265 91.1544H105.05V88.771H106.265C107.143 88.771 107.628 89.1952 107.628 89.9615C107.628 90.7279 107.143 91.1544 106.265 91.1544Z" fill="white"/>
<path d="M88.5834 92.6017C88.231 92.791 87.8227 92.8914 87.4004 92.8914C86.1637 92.8914 85.2677 92.0293 85.2677 90.841C85.2677 89.6527 86.1637 88.7906 87.4004 88.7906C87.867 88.7906 88.287 88.9184 88.6464 89.1715L89.6287 88.4622L89.5634 88.4075C88.9894 87.9148 88.2217 87.6548 87.3444 87.6548C86.3924 87.6548 85.529 87.9673 84.913 88.5375C84.2924 89.1099 83.9517 89.915 83.9517 90.8068C83.9517 91.7008 84.2924 92.5196 84.9107 93.1103C85.5314 93.7033 86.3924 94.0295 87.3374 94.0295C88.3244 94.0295 89.1877 93.6919 89.7734 93.0807C89.323 92.7545 88.8867 92.4421 88.8867 92.4421L88.5834 92.6017Z" fill="white"/>
<path d="M80.776 90.841C80.776 90.5263 80.748 90.2161 80.692 89.9173L79.5557 90.7361C79.5557 90.7703 79.558 90.8068 79.558 90.841C79.558 93.0282 77.738 94.8095 75.498 94.8095C73.2603 94.8095 71.438 93.0305 71.438 90.841C71.438 88.6538 73.258 86.8725 75.498 86.8725C76.3473 86.8725 77.1337 87.128 77.787 87.5659L78.8137 86.8269C77.9083 86.1108 76.7533 85.682 75.498 85.682C72.5837 85.682 70.22 87.9924 70.22 90.841C70.22 93.6896 72.5837 96 75.498 96C78.4147 96 80.776 93.6919 80.776 90.841Z" fill="white"/>
<path d="M79.6747 87.6867C79.9243 88.0015 80.1367 88.3459 80.307 88.7131L75.498 92.1775L73.489 90.9459V89.4634L75.498 90.695L79.6747 87.6867Z" fill="white"/>
<path d="M159.975 71H156.015V38.735H159.975V71ZM184.936 47.465C184.396 48.995 183.136 52.415 181.246 57.815C179.806 61.82 178.591 65.15 177.646 67.67C175.351 73.7 173.731 77.345 172.786 78.65C171.841 80 170.266 80.63 167.971 80.63C167.431 80.63 166.981 80.63 166.711 80.585C166.396 80.54 165.991 80.45 165.586 80.36V76.715C166.261 76.94 166.756 77.03 167.071 77.075C167.386 77.12 167.656 77.165 167.881 77.165C168.601 77.165 169.141 77.03 169.501 76.805C169.816 76.58 170.131 76.265 170.356 75.905C170.446 75.77 170.671 75.185 171.166 74.105L172.156 71.675L163.426 47.465H167.926L174.226 66.635L180.571 47.465H184.936ZM188.356 38.735H192.316V43.28H188.356V38.735ZM184.621 76.94C186.421 76.895 187.456 76.715 187.861 76.49C188.221 76.22 188.356 75.41 188.356 74.06V47.555H192.316V74.51C192.316 76.22 192.046 77.48 191.506 78.335C190.561 79.775 188.806 80.495 186.241 80.495C186.061 80.495 185.836 80.495 185.656 80.45L184.621 80.36V76.94ZM210.976 56.735C211.876 56.645 212.461 56.24 212.776 55.61C212.956 55.25 213.046 54.755 213.046 54.08C213.046 52.73 212.551 51.74 211.606 51.155C210.661 50.525 209.266 50.255 207.511 50.255C205.441 50.255 203.956 50.795 203.101 51.92C202.606 52.505 202.291 53.45 202.156 54.665H198.466C198.511 51.74 199.456 49.715 201.301 48.59C203.101 47.465 205.171 46.88 207.601 46.88C210.346 46.88 212.596 47.42 214.306 48.5C216.061 49.535 216.916 51.2 216.916 53.405V66.95C216.916 67.355 217.006 67.715 217.141 67.94C217.321 68.21 217.681 68.3 218.221 68.3C218.401 68.3 218.581 68.3 218.806 68.255C219.031 68.255 219.256 68.21 219.526 68.21V71.09C218.896 71.27 218.446 71.405 218.086 71.45C217.771 71.495 217.321 71.495 216.781 71.495C215.431 71.495 214.441 71 213.811 70.055C213.496 69.56 213.271 68.84 213.136 67.895C212.326 68.93 211.201 69.875 209.671 70.64C208.141 71.405 206.521 71.81 204.676 71.81C202.516 71.81 200.716 71.135 199.321 69.785C197.971 68.48 197.251 66.815 197.251 64.835C197.251 62.63 197.926 60.965 199.276 59.75C200.671 58.535 202.426 57.815 204.676 57.545L210.976 56.735ZM202.651 67.445C203.461 68.12 204.451 68.435 205.621 68.435C206.971 68.435 208.366 68.12 209.626 67.445C211.831 66.365 212.956 64.655 212.956 62.225V59.03C212.461 59.345 211.831 59.615 211.066 59.795C210.301 59.975 209.536 60.155 208.816 60.245L206.431 60.56C204.991 60.74 203.911 61.01 203.191 61.46C202.021 62.135 201.391 63.215 201.391 64.745C201.391 65.87 201.796 66.77 202.651 67.445ZM223.336 38.735H227.296V43.28H223.336V38.735ZM219.601 76.94C221.401 76.895 222.436 76.715 222.841 76.49C223.201 76.22 223.336 75.41 223.336 74.06V47.555H227.296V74.51C227.296 76.22 227.026 77.48 226.486 78.335C225.541 79.775 223.786 80.495 221.221 80.495C221.041 80.495 220.816 80.495 220.636 80.45L219.601 80.36V76.94ZM247.982 48.095C249.557 48.905 250.772 49.895 251.582 51.155C252.347 52.325 252.887 53.72 253.157 55.295C253.382 56.375 253.517 58.13 253.517 60.515H236.237C236.327 62.9 236.912 64.79 237.947 66.23C238.982 67.67 240.647 68.39 242.852 68.39C244.922 68.39 246.542 67.715 247.802 66.365C248.477 65.555 249.017 64.655 249.287 63.62H253.157C253.067 64.475 252.752 65.42 252.167 66.5C251.582 67.58 250.952 68.435 250.187 69.11C249.017 70.28 247.532 71.045 245.732 71.495C244.787 71.72 243.707 71.855 242.537 71.855C239.612 71.855 237.092 70.775 235.067 68.615C233.042 66.5 232.007 63.53 232.007 59.705C232.007 55.925 233.042 52.82 235.112 50.48C237.137 48.14 239.792 46.925 243.122 46.925C244.787 46.925 246.407 47.33 247.982 48.095ZM249.422 57.365C249.287 55.655 248.927 54.26 248.297 53.225C247.262 51.335 245.417 50.39 242.897 50.39C241.052 50.39 239.567 51.065 238.307 52.325C237.092 53.675 236.417 55.34 236.372 57.365H249.422ZM262.187 51.515C262.502 50.75 263.267 49.76 264.482 48.635C265.697 47.51 267.047 46.925 268.622 46.925C268.667 46.925 268.802 46.925 268.982 46.97L269.882 47.06V51.245C269.657 51.2 269.477 51.155 269.252 51.155C269.072 51.11 268.847 51.11 268.577 51.11C266.597 51.11 265.067 51.74 263.987 53.045C262.952 54.305 262.412 55.79 262.412 57.455V71H258.452V47.465H262.187V51.515ZM277.037 57.455L287.207 47.465H292.247L283.247 56.285L292.742 71H287.702L280.367 59.12L277.037 62.18V71H273.212V38.735H277.037V57.455Z" fill="white"/>
<defs>
<linearGradient id="paint0_linear_1_24" x1="356.783" y1="5.61363" x2="9.69401" y2="114.536" gradientUnits="userSpaceOnUse">
<stop stop-color="#44EB99"/>
<stop offset="1" stop-color="#861BE3"/>
</linearGradient>
</defs>
</svg>
